# xmcd CD database file
#
# Track frame offsets:
#	187
#	15637
#	32362
#	45857
#	64595
#	74202
#	92702
#	108677
#	120720
#	135227
#	170957
#	210640
#	227892
#	241280
#	259432
#	276835
#
# Disc length: 3799 seconds
#
# Revision: 0
# Processed by: cddbd v1.4PL0 Copyright (c) Steve Scherf et al.
# Submitted via: CDex 1.51
#
DISCID=e80ed510
DTITLE=Willie "The Lion" Smith - "Echoes Of Spring"- Paris
DYEAR=1965
DGENRE=Jazz
TTITLE0=Echoes Of Spring
TTITLE1=Relaxin'
TTITLE2=Here Comes The Band
TTITLE3=Tea For Two
TTITLE4=Carolina Shout
TTITLE5=Zig Zag
TTITLE6=That's Why They Call Me Shine
TTITLE7=Dardanella
TTITLE8=Dinah
TTITLE9=Jimmy Johnson Medley
TTITLE10=Medley No. 2
TTITLE11=Squeeze Me
TTITLE12=Polonaise
TTITLE13=Medley No. 3
TTITLE14=Tea For Two 2
TTITLE15=La Marseillaise
EXTD=YEAR: 1965
EXTT0=
EXTT1=
EXTT2=
EXTT3=
EXTT4=
EXTT5=
EXTT6=
EXTT7=
EXTT8=
EXTT9=
EXTT10=
EXTT11=
EXTT12=
EXTT13=
EXTT14=
EXTT15=
PLAYORDER=
